<?xml version="1.0" encoding="UTF-8"?>
<!-- Generator: Adobe Illustrator 22.0.1, SVG Export Plug-In . SVG Version: 6.00 Build 0)  -->
<!DOCTYPE svg PUBLIC "-//W3C//DTD SVG 1.1//EN" "http://www.w3.org/Graphics/SVG/1.1/DTD/svg11.dtd">
<svg version="1.1" id="Layer_1" xmlns="http://www.w3.org/2000/svg" xmlns:xlink="http://www.w3.org/1999/xlink" x="0px" y="0px" viewBox="0 0 245.6 50.2" style="enable-background:new 0 0 245.6 50.2;" xml:space="preserve">
<style type="text/css">
	.st0{fill:#717C7D;}
	.st1{fill:#1D3661;}
</style>
<g>
	<path class="st0" d="M207.2,32.4h5.9c-0.5-4.9-4.1-8.1-10.5-8.1c-5.6,0-10,2.5-10,7.9c0,5.4,4.3,6.6,8.7,7.4   c3.4,0.7,6.5,0.9,6.5,3.3c0,1.7-1.6,2.8-4.5,2.8c-2.9,0-4.9-1.2-5.4-4.1h-6c0.4,5.2,4.4,8.7,11.5,8.7c6.1,0,10.4-3,10.4-7.9   c0-5.8-4.6-6.9-8.7-7.8c-3.5-0.7-6.8-0.9-6.8-3c0-1.8,1.7-2.7,4.2-2.7C205.2,28.8,206.9,29.7,207.2,32.4 M182.9,49.5h6.5V33.4   c0-5.4-3.4-9.2-8.5-9.2c-3.4,0-5.6,1.4-7.3,4h-0.1v-3.4h-6.4v24.6h6.5v-14c0-3.4,2.1-5.7,5-5.7c2.7,0,4.3,1.9,4.3,4.5V49.5z    M164.4,37.2c0-7.3-5.2-13-12.8-13c-7.6,0-12.8,5.7-12.8,13c0,7.3,5.2,13,12.8,13C159.2,50.2,164.4,44.5,164.4,37.2 M157.8,37.2   c0,4.8-2.3,8-6.2,8c-4,0-6.2-3.2-6.2-8c0-4.8,2.2-8.1,6.2-8.1C155.6,29.1,157.8,32.4,157.8,37.2 M133.5,49.5c2.6,0,4.1-0.1,4.1-0.1   v-4.8c0,0-1.1,0-1.9,0c-1.4,0-2.4-0.6-2.4-2.4v-13h4.2v-4.3h-4.2v-9.6l-6.4,6.4v3.3h-3.4v4.3h3.4v14.4   C126.8,48.3,130.3,49.5,133.5,49.5 M115.4,49.5h6.5V33.4c0-5.4-3.4-9.2-8.5-9.2c-3.4,0-5.6,1.4-7.3,4H106v-3.4h-6.4v24.6h6.5v-14   c0-3.4,2.1-5.7,5-5.7c2.7,0,4.3,1.9,4.3,4.5V49.5z M96.7,30.5h0.1v-5.7c-0.4-0.1-0.8-0.2-1.5-0.2c-2.9,0-4.6,1.4-6,4.2h-0.1v-3.9   h-6.3v24.6h6.5v-12C89.4,32.3,92.4,30.1,96.7,30.5 M79.9,37.2c0-7.3-5.2-13-12.8-13s-12.8,5.7-12.8,13c0,7.3,5.2,13,12.8,13   S79.9,44.5,79.9,37.2 M73.3,37.2c0,4.8-2.3,8-6.2,8c-4,0-6.2-3.2-6.2-8c0-4.8,2.2-8.1,6.2-8.1C71.1,29.1,73.3,32.4,73.3,37.2    M45,49.5h6.5V33.4c0-5.4-3.4-9.2-8.5-9.2c-3.4,0-5.4,1.3-7.1,3.9h-0.1V15.2h-6.5V21v28.4h6.5v-14c0-3.4,2.1-5.7,5-5.7   c2.7,0,4.3,1.9,4.3,4.5V49.5z M17.3,21h12l-5.9-5.8H0V21h10.3v28.4h7V21z"/>
	<polygon class="st1" points="225.9,29.6 225.9,16.5 212.8,16.5  "/>
	<polygon class="st1" points="232.5,16.5 232.5,29.6 245.6,16.5  "/>
	<polygon class="st1" points="229.2,0 218.6,10.6 239.8,10.6  "/>
</g>
</svg>